<svg xmlns="http://www.w3.org/2000/svg" xmlns:xlink="http://www.w3.org/1999/xlink">
	<symbol id="arrowsleft" viewBox="0 0 24 24"><path d="M11 17l-5-5 5-5M18 17l-5-5 5-5"/></symbol>
	<symbol id="arrowsright" viewBox="0 0 24 24"><path d="M13 17l5-5-5-5M6 17l5-5-5-5"/></symbol>
	<symbol id="bell" viewBox="0 0 24 24"><path d="M18 8A6 6 0 0 0 6 8c0 7-3 9-3 9h18s-3-2-3-9M13.73 21a2 2 0 0 1-3.46 0"/></symbol>
	<symbol id="check" viewBox="0 0 24 24"><path d="M20 6L9 17l-5-5"/></symbol>
	<symbol id="checkcircle" viewBox="0 0 24 24"><path d="M22 11.08V12a10 10 0 1 1-5.93-9.14"/><path d="M22 4L12 14.01l-3-3"/></symbol>
	<symbol id="close" viewBox="0 0 24 24"><path d="M18 6L6 18M6 6l12 12"/></symbol>
	<symbol id="download" viewBox="0 0 24 24"><path d="M8 17l4 4 4-4M12 12v9"/><path d="M20.88 18.09A5 5 0 0018 9h-1.26A8 8 0 103 16.29"/></symbol>
	<symbol id="folder" viewBox="0 0 24 24"><path d="M22 19a2 2 0 0 1-2 2H4a2 2 0 0 1-2-2V5a2 2 0 0 1 2-2h5l2 3h9a2 2 0 0 1 2 2z"/></symbol>
	<symbol id="home" viewBox="0 0 24 24"><path d="M3 9l9-7 9 7v11a2 2 0 0 1-2 2H5a2 2 0 0 1-2-2z"/><path d="M9 22V12h6v10"/></symbol>
	<symbol id="link" viewBox="0 0 24 24"><path d="M10 13a5 5 0 0 0 7.54.54l3-3a5 5 0 0 0-7.07-7.07l-1.72 1.71"/><path d="M14 11a5 5 0 0 0-7.54-.54l-3 3a5 5 0 0 0 7.07 7.07l1.71-1.71"/></symbol>
	<symbol id="lock" viewBox="0 0 24 24"><rect x="3" y="11" width="18" height="11" rx="2" ry="2"/><path d="M7 11V7a5 5 0 0 1 10 0v4"/></symbol>
	<symbol id="logout" viewBox="0 0 24 24"><path d="M9 21H5a2 2 0 0 1-2-2V5a2 2 0 0 1 2-2h4M16 17l5-5-5-5M21 12H9"/></symbol>
	<symbol id="menu" viewBox="0 0 24 24"><path d="M3 12h18M3 6h18M3 18h18"/></symbol>
	<symbol id="refresh" viewBox="0 0 24 24"><path d="M23 4v6h-6"/><path d="M20.49 15a9 9 0 1 1-2.12-9.36L23 10"/></symbol>
	<symbol id="refreshCw" viewBox="0 0 24 24"><path d="M23 4v6h-6M1 20v-6h6"/><path d="M3.51 9a9 9 0 0 1 14.85-3.36L23 10M1 14l4.64 4.36A9 9 0 0 0 20.49 15"/></symbol>
</svg>