<svg xmlns="http://www.w3.org/2000/svg" xmlns:xlink="http://www.w3.org/1999/xlink">
	<symbol id="database" viewBox="0 0 24 24"><ellipse cx="12" cy="5" rx="9" ry="3"/><path d="M21 12c0 1.66-4 3-9 3s-9-1.34-9-3"/><path d="M3 5v14c0 1.66 4 3 9 3s9-1.34 9-3V5"/></symbol>
	<symbol id="users" viewBox="0 0 24 24"><path d="M17 21v-2a4 4 0 0 0-4-4H5a4 4 0 0 0-4 4v2"/><circle cx="9" cy="7" r="4"/><path d="M23 21v-2a4 4 0 0 0-3-3.87M16 3.13a4 4 0 0 1 0 7.75"/></symbol>
	<symbol id="smile" viewBox="0 0 24 24"><circle cx="12" cy="12" r="10"/><path d="M8 14s1.5 2 4 2 4-2 4-2M9 9h.01M15 9h.01"/></symbol>
	<symbol id="clipboard" viewBox="0 0 24 24"><path d="M16 4h2a2 2 0 0 1 2 2v14a2 2 0 0 1-2 2H6a2 2 0 0 1-2-2V6a2 2 0 0 1 2-2h2"/><rect x="8" y="2" width="8" height="4" rx="1" ry="1"/></symbol>
	<symbol id="messagec" viewBox="0 0 24 24"><path d="M21 11.5a8.38 8.38 0 0 1-.9 3.8 8.5 8.5 0 0 1-7.6 4.7 8.38 8.38 0 0 1-3.8-.9L3 21l1.9-5.7a8.38 8.38 0 0 1-.9-3.8 8.5 8.5 0 0 1 4.7-7.6 8.38 8.38 0 0 1 3.8-.9h.5a8.48 8.48 0 0 1 8 8v.5z"/></symbol>
	<symbol id="archive" viewBox="0 0 24 24"><path d="M21 8v13H3V8M1 3h22v5H1zM10 12h4"/></symbol>

	<symbol id="file" viewBox="0 0 24 24"><path d="M14 2H6a2 2 0 0 0-2 2v16a2 2 0 0 0 2 2h12a2 2 0 0 0 2-2V8z"/><path d="M14 2v6h6M16 13H8M16 17H8M10 9H8"/></symbol>
	<symbol id="calendar" viewBox="0 0 24 24"><rect x="3" y="4" width="18" height="18" rx="2" ry="2"/><path d="M16 2v4M8 2v4M3 10h18"/></symbol>
	<symbol id="help" viewBox="0 0 24 24"><circle cx="12" cy="12" r="10"/><path d="M9.09 9a3 3 0 0 1 5.83 1c0 2-3 3-3 3M12 17h.01"/></symbol>
	<symbol id="camera" viewBox="0 0 24 24"><path d="M23 19a2 2 0 0 1-2 2H3a2 2 0 0 1-2-2V8a2 2 0 0 1 2-2h4l2-3h6l2 3h4a2 2 0 0 1 2 2z"/><circle cx="12" cy="13" r="4"/></symbol>
	<symbol id="shopping" viewBox="0 0 24 24"><circle cx="9" cy="21" r="1"/><circle cx="20" cy="21" r="1"/><path d="M1 1h4l2.68 13.39a2 2 0 0 0 2 1.61h9.72a2 2 0 0 0 2-1.61L23 6H6"/></symbol>
	<symbol id="trending" viewBox="0 0 24 24"><path d="M23 6l-9.5 9.5-5-5L1 18"/><path d="M17 6h6v6"/></symbol>
	<symbol id="set1" viewBox="0 0 24 24"><path d="M4 21v-7M4 10V3M12 21v-9M12 8V3M20 21v-5M20 12V3M1 14h6M9 8h6M17 16h6"/></symbol>
	<symbol id="set2" viewBox="0 0 24 24"><circle cx="12" cy="12" r="3"/><path d="M19.4 15a1.65 1.65 0 0 0 .33 1.82l.06.06a2 2 0 0 1 0 2.83 2 2 0 0 1-2.83 0l-.06-.06a1.65 1.65 0 0 0-1.82-.33 1.65 1.65 0 0 0-1 1.51V21a2 2 0 0 1-2 2 2 2 0 0 1-2-2v-.09A1.65 1.65 0 0 0 9 19.4a1.65 1.65 0 0 0-1.82.33l-.06.06a2 2 0 0 1-2.83 0 2 2 0 0 1 0-2.83l.06-.06a1.65 1.65 0 0 0 .33-1.82 1.65 1.65 0 0 0-1.51-1H3a2 2 0 0 1-2-2 2 2 0 0 1 2-2h.09A1.65 1.65 0 0 0 4.6 9a1.65 1.65 0 0 0-.33-1.82l-.06-.06a2 2 0 0 1 0-2.83 2 2 0 0 1 2.83 0l.06.06a1.65 1.65 0 0 0 1.82.33H9a1.65 1.65 0 0 0 1-1.51V3a2 2 0 0 1 2-2 2 2 0 0 1 2 2v.09a1.65 1.65 0 0 0 1 1.51 1.65 1.65 0 0 0 1.82-.33l.06-.06a2 2 0 0 1 2.83 0 2 2 0 0 1 0 2.83l-.06.06a1.65 1.65 0 0 0-.33 1.82V9a1.65 1.65 0 0 0 1.51 1H21a2 2 0 0 1 2 2 2 2 0 0 1-2 2h-.09a1.65 1.65 0 0 0-1.51 1z"/></symbol>
	<symbol id="inbox" viewBox="0 0 24 24"><path d="M22 12h-6l-2 3h-4l-2-3H2"/><path d="M5.45 5.11L2 12v6a2 2 0 0 0 2 2h16a2 2 0 0 0 2-2v-6l-3.45-6.89A2 2 0 0 0 16.76 4H7.24a2 2 0 0 0-1.79 1.11z"/></symbol>
	<symbol id="image" viewBox="0 0 24 24"><rect x="3" y="3" width="18" height="18" rx="2" ry="2"/><circle cx="8.5" cy="8.5" r="1.5"/><path d="M21 15l-5-5L5 21"/></symbol>
	<symbol id="external" viewBox="0 0 24 24"><path d="M18 13v6a2 2 0 0 1-2 2H5a2 2 0 0 1-2-2V8a2 2 0 0 1 2-2h6M15 3h6v6M10 14L21 3"/></symbol>
	<symbol id="server" viewBox="0 0 24 24"><rect x="2" y="2" width="20" height="8" rx="2" ry="2"/><rect x="2" y="14" width="20" height="8" rx="2" ry="2"/><path d="M6 6h.01M6 18h.01"/></symbol>
</svg>